# xmcd CD database file
#
# Track frame offsets:
#	150
#	25700
#	47052
#	69797
#	93020
#	123985
#	146817
#	281702
#
# Disc length: 4442 seconds
#
# Revision: 0
# Processed by: cddbd v1.5.2PL0 Copyright (c) Steve Scherf et al.
# Submitted via: CDex 1.70beta3
#
DISCID=67115808
DTITLE=Sunaga 't Experience - It's You EP
DYEAR=2001
DGENRE=Jazz
TTITLE0=It's You
TTITLE1=Times 24h By Starlight
TTITLE2=It's You (Versione Tokyo Bossa)
TTITLE3=Times 24h By Starlight (Melodius Vocal Remix)
TTITLE4=It's You (It's Muro Mix)
TTITLE5=Times 24h By Starlight (Tom and Joyce Remix)
TTITLE6=Times 24h By Starlight (Cubi's New Morning Mix)
TTITLE7=It's You (Disco Alert Mix)
EXTD=YEAR: 2001
EXTT0=
EXTT1=
EXTT2=
EXTT3=
EXTT4=
EXTT5=
EXTT6=
EXTT7=
PLAYORDER=
